<svg width="43" height="44" viewBox="0 0 43 44" fill="none" xmlns="http://www.w3.org/2000/svg">
<path d="M30.9441 41.0667H11.9619C11.5963 41.0667 11.2799 41.2118 11.0127 41.5021C10.7456 41.7924 10.612 42.1361 10.612 42.5333C10.612 42.9306 10.7456 43.2743 11.0127 43.5646C11.2799 43.8549 11.5963 44 11.9619 44H30.9441C31.3097 44 31.6261 43.8549 31.8933 43.5646C32.1604 43.2743 32.294 42.9306 32.294 42.5333C32.294 42.1361 32.1604 41.7924 31.8933 41.5021C31.6261 41.2118 31.3097 41.0667 30.9441 41.0667ZM42.7975 4.125C42.7694 3.94167 42.7132 3.78125 42.6288 3.64375C42.5444 3.50625 42.446 3.38403 42.3335 3.27708C42.221 3.17014 42.0945 3.08611 41.9539 3.025C41.8133 2.96389 41.6586 2.93333 41.4899 2.93333H34.8671V1.46667C34.8671 1.06944 34.7406 0.725694 34.4875 0.435417C34.2344 0.145139 33.911 0 33.5173 0H9.26215C8.89657 0 8.58019 0.145139 8.31304 0.435417C8.04588 0.725694 7.9123 1.06944 7.9123 1.46667V2.93333H1.5005C1.30365 2.93333 1.1068 2.98681 0.909945 3.09375C0.713091 3.20069 0.55139 3.33819 0.424842 3.50625C0.298293 3.67431 0.220958 3.88056 0.192836 4.125C0.164714 4.27778 0.129562 4.49931 0.0873788 4.78958C0.0451959 5.07986 0.017074 5.58403 0.00301306 6.30208C-0.0110479 7.02014 0.0241045 7.72292 0.10847 8.41042C0.192836 9.09792 0.382659 9.86181 0.677939 10.7021C0.973219 11.5424 1.37396 12.2986 1.88015 12.9708C3.37061 14.9875 5.64849 16.0417 8.71377 16.1333C9.58555 18.9444 11.0409 21.2819 13.0797 23.1458C15.1185 25.0097 17.4316 26.0944 20.0188 26.4V36.6208H16.0114C15.6177 36.6208 15.2943 36.766 15.0412 37.0563C14.7881 37.3465 14.6616 37.6903 14.6616 38.0875C14.6616 38.4847 14.7881 38.8285 15.0412 39.1188C15.2943 39.409 15.6177 39.5542 16.0114 39.5542H26.8946C27.2602 39.5542 27.5765 39.409 27.8437 39.1188C28.1109 38.8285 28.2444 38.4847 28.2444 38.0875C28.2444 37.6903 28.1109 37.3465 27.8437 37.0563C27.5765 36.766 27.2602 36.6208 26.8946 36.6208H22.7185V26.4C25.3338 26.0944 27.6609 25.0097 29.6997 23.1458C31.7386 21.2819 33.1939 18.9444 34.0657 16.1333C35.6405 16.1028 37.0185 15.8201 38.1996 15.2854C39.3807 14.7507 40.3509 13.9792 41.1102 12.9708C42.685 10.8625 43.2756 8.09722 42.8819 4.675C42.8538 4.46111 42.8256 4.27778 42.7975 4.125ZM3.94711 11.1375C3.01909 9.88472 2.61132 8.12778 2.72381 5.86667H7.9123V11.2979L7.93339 11.7792L7.97557 12.2375L8.01776 12.6958L8.08103 13.1542C7.15301 13.0625 6.3445 12.8486 5.65552 12.5125C4.96653 12.1764 4.39706 11.7181 3.94711 11.1375ZM32.1674 10.8167C32.1674 12.5278 31.8862 14.1701 31.3238 15.7438C30.7613 17.3174 29.995 18.6771 29.0248 19.8229C28.0546 20.9688 26.9086 21.8778 25.5869 22.55C24.2652 23.2222 22.8732 23.5583 21.4108 23.5583C18.4299 23.5583 15.8849 22.3132 13.7757 19.8229C11.6666 17.3326 10.612 14.3306 10.612 10.8167V2.93333H32.1674V10.8167ZM39.0432 11.1375C38.5652 11.7181 37.9676 12.184 37.2505 12.5354C36.5334 12.8868 35.6827 13.0931 34.6984 13.1542C34.7547 12.7569 34.7968 12.3674 34.825 11.9854C34.8531 11.6035 34.8671 11.2139 34.8671 10.8167V5.86667H40.2666C40.3509 8.12778 39.9431 9.88472 39.0432 11.1375Z" fill="#FFFFFC"/>
</svg>
