<svg width="34" height="39" viewBox="0 0 34 39" fill="none" xmlns="http://www.w3.org/2000/svg">
<path d="M17 19.5C22.3656 19.5 26.7143 15.1354 26.7143 9.75C26.7143 4.36465 22.3656 0 17 0C11.6344 0 7.28571 4.36465 7.28571 9.75C7.28571 15.1354 11.6344 19.5 17 19.5ZM24.2705 21.9832L20.6429 36.5625L18.2143 26.2031L20.6429 21.9375H13.3571L15.7857 26.2031L13.3571 36.5625L9.72946 21.9832C4.3183 22.2422 0 26.683 0 32.175V35.3438C0 37.3623 1.6317 39 3.64286 39H30.3571C32.3683 39 34 37.3623 34 35.3438V32.175C34 26.683 29.6817 22.2422 24.2705 21.9832Z" fill="#FFFFFC"/>
</svg>
