<svg width="58" height="58" viewBox="0 0 58 58" fill="none" xmlns="http://www.w3.org/2000/svg">
<path d="M29 4.83337C33.0117 4.83337 36.25 8.07171 36.25 12.0834C36.25 16.095 33.0117 19.3334 29 19.3334C24.9884 19.3334 21.75 16.095 21.75 12.0834C21.75 8.07171 24.9884 4.83337 29 4.83337ZM48.3334 43.5L43.5 30.3534C42.6542 27.9609 41.905 25.8825 38.6667 24.1667C35.3559 22.475 32.9392 21.75 29 21.75C25.1092 21.75 22.6925 22.475 19.3334 24.1667C16.1434 25.8825 15.3942 27.9609 14.5 30.3534L9.6667 43.5C9.11087 46.2309 15.4184 49.3967 19.6475 51.2092C22.5717 52.49 25.7134 53.1667 29 53.1667C32.335 53.1667 35.4525 52.49 38.4009 51.2092C42.63 49.3967 48.9375 46.2309 48.3334 43.5ZM37.265 42.2917L29 50.75L20.735 42.2917C19.865 41.3734 19.3334 40.1409 19.3334 38.7875C19.3334 36.0567 21.5084 33.8334 24.1667 33.8334C25.4959 33.8334 26.7284 34.3892 27.5984 35.3075L29 36.7334L30.4017 35.2834C31.2717 34.3892 32.5042 33.8334 33.8334 33.8334C36.5159 33.8334 38.6667 36.0567 38.6667 38.7875C38.6667 40.1409 38.135 41.3975 37.265 42.2917Z" fill="#FFFFFC"/>
</svg>
