<svg width="118" height="116" viewBox="0 0 118 116" fill="none" xmlns="http://www.w3.org/2000/svg">
<path d="M6.09502 45.85H111.905C114.434 45.85 116.5 47.9155 116.5 50.4831V109.017C116.5 111.584 114.434 113.65 111.905 113.65H6.09502C3.56603 113.65 1.5 111.584 1.5 109.017V50.4831C1.5 47.9155 3.56604 45.85 6.09502 45.85Z" fill="#FFFFFC" stroke="black" stroke-width="3"/>
<path d="M48.6756 113.65H39.8501V45.85H48.6756H57.5001V113.65H48.6756Z" fill="#C88787" stroke="black" stroke-width="3"/>
<path d="M66.3755 113.65H57.55V45.85H66.3755H75.2V113.65H66.3755Z" fill="#C88787" stroke="black" stroke-width="3"/>
<path d="M57.0398 23.0975C57.0398 34.9702 47.4151 44.595 35.5424 44.595C23.6696 44.595 14.0449 34.9702 14.0449 23.0975C14.0449 11.2247 23.6696 1.59998 35.5424 1.59998C47.4151 1.59998 57.0398 11.2247 57.0398 23.0975Z" fill="#C88787" stroke="black" stroke-width="3"/>
<path d="M102.754 23.0975C102.754 34.9702 93.1297 44.595 81.257 44.595C69.3842 44.595 59.7595 34.9702 59.7595 23.0975C59.7595 11.2247 69.3842 1.59998 81.257 1.59998C93.1297 1.59998 102.754 11.2247 102.754 23.0975Z" fill="#C88787" stroke="black" stroke-width="3"/>
<path d="M90.6298 23.0978C90.6298 28.2736 86.434 32.4694 81.2583 32.4694C76.0825 32.4694 71.8867 28.2736 71.8867 23.0978C71.8867 17.9221 76.0825 13.7263 81.2583 13.7263C86.434 13.7263 90.6298 17.9221 90.6298 23.0978Z" fill="#FFFFFC" stroke="black" stroke-width="3"/>
<path d="M44.634 23.0978C44.634 28.2736 40.4382 32.4694 35.2624 32.4694C30.0867 32.4694 25.8909 28.2736 25.8909 23.0978C25.8909 17.9221 30.0867 13.7263 35.2624 13.7263C40.4382 13.7263 44.634 17.9221 44.634 23.0978Z" fill="#FFFFFC" stroke="black" stroke-width="3"/>
</svg>
