<svg width="39" height="43" viewBox="0 0 39 43" fill="none" xmlns="http://www.w3.org/2000/svg">
<path d="M34.6667 4.3H30.3333V0H26V4.3H13V0H8.66667V4.3H4.33333C1.9435 4.3 0 6.22855 0 8.6V38.7C0 41.0714 1.9435 43 4.33333 43H34.6667C37.0565 43 39 41.0714 39 38.7V8.6C39 6.22855 37.0565 4.3 34.6667 4.3ZM26.7627 29.4787L19.5043 36.55L12.2482 29.4787C11.8006 29.0516 11.4446 28.5392 11.2014 27.9723C10.9582 27.4054 10.8329 26.7956 10.8329 26.1795C10.8329 25.5633 10.9582 24.9536 11.2014 24.3867C11.4446 23.8197 11.8006 23.3074 12.2482 22.8803C13.15 21.9968 14.3663 21.5014 15.6336 21.5014C16.9009 21.5014 18.1172 21.9968 19.019 22.8803L19.5043 23.3512L19.9897 22.8803C20.8919 21.9967 22.1085 21.5012 23.3762 21.5012C24.6438 21.5012 25.8605 21.9967 26.7627 22.8803C27.2102 23.3074 27.5662 23.8197 27.8094 24.3867C28.0526 24.9536 28.178 25.5633 28.178 26.1795C28.178 26.7956 28.0526 27.4054 27.8094 27.9723C27.5662 28.5392 27.2102 29.0516 26.7627 29.4787ZM34.6667 15.05H4.33333V10.75H34.6667V15.05Z" fill="#FFFFFC"/>
</svg>
