<svg width="48" height="48" viewBox="0 0 48 48" fill="none" xmlns="http://www.w3.org/2000/svg">
<path d="M39.5625 21.1937H29.25V12.1937H25.875C26.9197 10.7991 27.481 9.10183 27.4738 7.35933C27.4738 4.76808 26.2477 2.3333 24.2738 1.00533L23.4365 0.441895L22.5992 1.00533C20.625 2.33349 19.3992 4.76818 19.3992 7.35933C19.3922 9.10185 19.9537 10.7991 20.9985 12.1936H17.25V21.1936H8.4375C6.99589 21.1953 5.61379 21.7687 4.59442 22.7881C3.57504 23.8074 3.00164 25.1895 3 26.6312V43.5C3.00089 44.2953 3.31725 45.0579 3.87967 45.6203C4.44208 46.1827 5.20462 46.4991 6 46.5H42C42.7954 46.4991 43.5579 46.1827 44.1203 45.6203C44.6827 45.0579 44.9991 44.2953 45 43.5V26.6312C44.9984 25.1896 44.425 23.8075 43.4056 22.7882C42.3862 21.7688 41.0041 21.1954 39.5625 21.1937ZM23.4365 4.26952C24.0918 5.08365 24.4738 6.18821 24.4738 7.35943C24.4738 8.53065 24.0918 9.6353 23.4365 10.4493C22.7812 9.6353 22.3992 8.53065 22.3992 7.35933C22.3992 6.18802 22.7812 5.08365 23.4365 4.26952ZM20.25 15.1937H26.25V21.1937H20.25V15.1937ZM6 26.6312C6.00074 25.985 6.25779 25.3655 6.71475 24.9085C7.17171 24.4515 7.79126 24.1945 8.4375 24.1937H39.5625C40.2087 24.1945 40.8283 24.4515 41.2853 24.9085C41.7422 25.3655 41.9993 25.985 42 26.6312V29.5916L39.975 30.4851C39.579 30.6594 39.151 30.7494 38.7183 30.7494C38.2856 30.7494 37.8577 30.6594 37.4617 30.4851L33.9375 28.9301L30.4125 30.485C30.0164 30.6593 29.5885 30.7493 29.1558 30.7493C28.7231 30.7493 28.2951 30.6593 27.8991 30.485L24.375 28.93L20.85 30.4849C20.454 30.6592 20.026 30.7492 19.5933 30.7492C19.1606 30.7492 18.7326 30.6592 18.3366 30.4849L14.8125 28.9301L11.2882 30.4849C10.8921 30.6592 10.4641 30.7492 10.0314 30.7492C9.59874 30.7492 9.17076 30.6592 8.77472 30.4849L6 29.2609V26.6312ZM42 43.5H6V32.5399L7.56356 33.2297C8.34125 33.5719 9.18161 33.7487 10.0312 33.7487C10.8809 33.7487 11.7213 33.5719 12.4989 33.2297L14.8125 32.209L17.1262 33.2297C17.9038 33.5719 18.7442 33.7487 19.5938 33.7487C20.4434 33.7487 21.2838 33.5719 22.0614 33.2297L24.375 32.209L26.6885 33.2297C27.4661 33.5719 28.3064 33.7486 29.1561 33.7486C30.0057 33.7486 30.846 33.5719 31.6237 33.2297L33.9375 32.209L36.2511 33.2298C37.0287 33.572 37.869 33.7487 38.7186 33.7487C39.5682 33.7487 40.4085 33.572 41.1862 33.2298L42.0011 32.8703L42.0019 43.5H42Z" fill="#FFFFFC"/>
</svg>
