<svg width="43" height="43" viewBox="0 0 43 43" fill="none" xmlns="http://www.w3.org/2000/svg">
<path d="M21.5 2.6875C11.1111 2.6875 2.6875 11.1111 2.6875 21.5C2.6875 31.8889 11.1111 40.3125 21.5 40.3125C31.8889 40.3125 40.3125 31.8889 40.3125 21.5C40.3125 11.1111 31.8889 2.6875 21.5 2.6875ZM21.5 37.1211C12.8748 37.1211 5.87891 30.1252 5.87891 21.5C5.87891 12.8748 12.8748 5.87891 21.5 5.87891C30.1252 5.87891 37.1211 12.8748 37.1211 21.5C37.1211 30.1252 30.1252 37.1211 21.5 37.1211Z" fill="#FFFFFC"/>
<path d="M26.1863 13.2989C24.9266 12.1945 23.2637 11.5898 21.5 11.5898C19.7363 11.5898 18.0734 12.1987 16.8137 13.2989C15.5035 14.4453 14.7812 15.9864 14.7812 17.6367V17.9559C14.7812 18.1406 14.9324 18.2918 15.1172 18.2918H17.1328C17.3176 18.2918 17.4687 18.1406 17.4687 17.9559V17.6367C17.4687 15.7849 19.2786 14.2773 21.5 14.2773C23.7214 14.2773 25.5312 15.7849 25.5312 17.6367C25.5312 18.9427 24.6074 20.1395 23.1755 20.6896C22.2853 21.0297 21.5294 21.626 20.9877 22.407C20.4376 23.2049 20.1521 24.1623 20.1521 25.1323V26.0352C20.1521 26.2199 20.3032 26.3711 20.488 26.3711H22.5036C22.6884 26.3711 22.8396 26.2199 22.8396 26.0352V25.0819C22.8417 24.6743 22.9667 24.2767 23.1981 23.9412C23.4296 23.6056 23.7568 23.3475 24.1371 23.2007C26.6146 22.2475 28.2146 20.0639 28.2146 17.6367C28.2188 15.9864 27.4965 14.4453 26.1863 13.2989ZM19.8203 30.7383C19.8203 31.1838 19.9973 31.611 20.3123 31.926C20.6273 32.241 21.0545 32.418 21.5 32.418C21.9455 32.418 22.3727 32.241 22.6877 31.926C23.0027 31.611 23.1797 31.1838 23.1797 30.7383C23.1797 30.2928 23.0027 29.8656 22.6877 29.5506C22.3727 29.2356 21.9455 29.0586 21.5 29.0586C21.0545 29.0586 20.6273 29.2356 20.3123 29.5506C19.9973 29.8656 19.8203 30.2928 19.8203 30.7383Z" fill="#FFFFFC"/>
</svg>
