<svg width="288" height="116" viewBox="0 0 288 116" fill="none" xmlns="http://www.w3.org/2000/svg">
<path d="M6.09502 45.85H111.905C114.434 45.85 116.5 47.9155 116.5 50.4831V109.017C116.5 111.584 114.434 113.65 111.905 113.65H6.09502C3.56603 113.65 1.5 111.584 1.5 109.017V50.4831C1.5 47.9155 3.56604 45.85 6.09502 45.85Z" fill="#FFFFFC" stroke="black" stroke-width="3"/>
<path d="M48.6756 113.65H39.8501V45.85H48.6756H57.5001V113.65H48.6756Z" fill="#C88787" stroke="black" stroke-width="3"/>
<path d="M66.3755 113.65H57.55V45.85H66.3755H75.2V113.65H66.3755Z" fill="#C88787" stroke="black" stroke-width="3"/>
<path d="M57.0398 23.0975C57.0398 34.9702 47.4151 44.595 35.5424 44.595C23.6696 44.595 14.0449 34.9702 14.0449 23.0975C14.0449 11.2247 23.6696 1.59998 35.5424 1.59998C47.4151 1.59998 57.0398 11.2247 57.0398 23.0975Z" fill="#C88787" stroke="black" stroke-width="3"/>
<path d="M102.754 23.0975C102.754 34.9702 93.1297 44.595 81.257 44.595C69.3842 44.595 59.7595 34.9702 59.7595 23.0975C59.7595 11.2247 69.3842 1.59998 81.257 1.59998C93.1297 1.59998 102.754 11.2247 102.754 23.0975Z" fill="#C88787" stroke="black" stroke-width="3"/>
<path d="M90.6298 23.0978C90.6298 28.2736 86.434 32.4694 81.2583 32.4694C76.0825 32.4694 71.8867 28.2736 71.8867 23.0978C71.8867 17.9221 76.0825 13.7263 81.2583 13.7263C86.434 13.7263 90.6298 17.9221 90.6298 23.0978Z" fill="#FFFFFC" stroke="black" stroke-width="3"/>
<path d="M44.634 23.0978C44.634 28.2736 40.4382 32.4694 35.2624 32.4694C30.0867 32.4694 25.8909 28.2736 25.8909 23.0978C25.8909 17.9221 30.0867 13.7263 35.2624 13.7263C40.4382 13.7263 44.634 17.9221 44.634 23.0978Z" fill="#FFFFFC" stroke="black" stroke-width="3"/>
<path d="M146.391 68.0781H142.141V74.5625C142.141 75.4896 141.922 76.1927 141.484 76.6719C141.047 77.151 140.495 77.3906 139.828 77.3906C139.13 77.3906 138.568 77.1562 138.141 76.6875C137.714 76.2083 137.5 75.5104 137.5 74.5938V56.9375C137.5 55.9167 137.734 55.1875 138.203 54.75C138.672 54.3125 139.417 54.0938 140.438 54.0938H146.391C148.151 54.0938 149.505 54.2292 150.453 54.5C151.391 54.7604 152.198 55.1927 152.875 55.7969C153.562 56.401 154.083 57.1406 154.438 58.0156C154.792 58.8906 154.969 59.875 154.969 60.9688C154.969 63.3021 154.25 65.0729 152.812 66.2812C151.375 67.4792 149.234 68.0781 146.391 68.0781ZM145.266 57.5781H142.141V64.5781H145.266C146.359 64.5781 147.271 64.4635 148 64.2344C148.74 64.0052 149.302 63.6302 149.688 63.1094C150.073 62.5885 150.266 61.9062 150.266 61.0625C150.266 60.0521 149.969 59.2292 149.375 58.5938C148.708 57.9167 147.339 57.5781 145.266 57.5781ZM165.078 67.2031H163.453V74.5625C163.453 75.5312 163.24 76.2448 162.812 76.7031C162.385 77.1615 161.828 77.3906 161.141 77.3906C160.401 77.3906 159.828 77.151 159.422 76.6719C159.016 76.1927 158.812 75.4896 158.812 74.5625V56.9375C158.812 55.9375 159.036 55.2135 159.484 54.7656C159.932 54.3177 160.656 54.0938 161.656 54.0938H169.203C170.245 54.0938 171.135 54.1406 171.875 54.2344C172.615 54.3177 173.281 54.4948 173.875 54.7656C174.594 55.0677 175.229 55.5 175.781 56.0625C176.333 56.625 176.75 57.2812 177.031 58.0312C177.323 58.7708 177.469 59.5573 177.469 60.3906C177.469 62.099 176.984 63.4635 176.016 64.4844C175.057 65.5052 173.599 66.2292 171.641 66.6562C172.464 67.0938 173.25 67.7396 174 68.5938C174.75 69.4479 175.417 70.3594 176 71.3281C176.594 72.2865 177.052 73.1562 177.375 73.9375C177.708 74.7083 177.875 75.2396 177.875 75.5312C177.875 75.8333 177.776 76.1354 177.578 76.4375C177.391 76.7292 177.13 76.9583 176.797 77.125C176.464 77.3021 176.078 77.3906 175.641 77.3906C175.12 77.3906 174.682 77.2656 174.328 77.0156C173.974 76.776 173.667 76.4688 173.406 76.0938C173.156 75.7188 172.812 75.1667 172.375 74.4375L170.516 71.3438C169.849 70.2083 169.25 69.3438 168.719 68.75C168.198 68.1562 167.667 67.75 167.125 67.5312C166.583 67.3125 165.901 67.2031 165.078 67.2031ZM167.734 57.5781H163.453V63.875H167.609C168.724 63.875 169.661 63.7812 170.422 63.5938C171.182 63.3958 171.76 63.0677 172.156 62.6094C172.562 62.1406 172.766 61.5 172.766 60.6875C172.766 60.0521 172.604 59.4948 172.281 59.0156C171.958 58.526 171.51 58.1615 170.938 57.9219C170.396 57.6927 169.328 57.5781 167.734 57.5781ZM196.969 57.6719H186.516V63.2969H196.141C196.849 63.2969 197.375 63.4583 197.719 63.7812C198.073 64.0938 198.25 64.5104 198.25 65.0312C198.25 65.5521 198.078 65.9792 197.734 66.3125C197.391 66.6354 196.859 66.7969 196.141 66.7969H186.516V73.3125H197.328C198.057 73.3125 198.604 73.4844 198.969 73.8281C199.344 74.1615 199.531 74.6094 199.531 75.1719C199.531 75.7135 199.344 76.1562 198.969 76.5C198.604 76.8333 198.057 77 197.328 77H184.719C183.708 77 182.979 76.776 182.531 76.3281C182.094 75.8802 181.875 75.1562 181.875 74.1562V56.9375C181.875 56.2708 181.974 55.7292 182.172 55.3125C182.37 54.8854 182.677 54.5781 183.094 54.3906C183.521 54.1927 184.062 54.0938 184.719 54.0938H196.969C197.708 54.0938 198.255 54.2604 198.609 54.5938C198.974 54.9167 199.156 55.3438 199.156 55.875C199.156 56.4167 198.974 56.8542 198.609 57.1875C198.255 57.5104 197.708 57.6719 196.969 57.6719ZM220.625 70.125C220.625 71.5104 220.266 72.7552 219.547 73.8594C218.839 74.9635 217.797 75.8281 216.422 76.4531C215.047 77.0781 213.417 77.3906 211.531 77.3906C209.271 77.3906 207.406 76.9635 205.938 76.1094C204.896 75.4948 204.047 74.6771 203.391 73.6562C202.745 72.625 202.422 71.625 202.422 70.6562C202.422 70.0938 202.615 69.6146 203 69.2188C203.396 68.8125 203.896 68.6094 204.5 68.6094C204.99 68.6094 205.401 68.7656 205.734 69.0781C206.078 69.3906 206.37 69.8542 206.609 70.4688C206.901 71.1979 207.214 71.8073 207.547 72.2969C207.891 72.7865 208.37 73.1927 208.984 73.5156C209.599 73.8281 210.406 73.9844 211.406 73.9844C212.781 73.9844 213.896 73.6667 214.75 73.0312C215.615 72.3854 216.047 71.5833 216.047 70.625C216.047 69.8646 215.812 69.25 215.344 68.7812C214.885 68.3021 214.286 67.9375 213.547 67.6875C212.818 67.4375 211.839 67.1719 210.609 66.8906C208.964 66.5052 207.583 66.0573 206.469 65.5469C205.365 65.026 204.484 64.3229 203.828 63.4375C203.182 62.5417 202.859 61.4323 202.859 60.1094C202.859 58.849 203.203 57.7292 203.891 56.75C204.578 55.7708 205.573 55.0208 206.875 54.5C208.177 53.9688 209.708 53.7031 211.469 53.7031C212.875 53.7031 214.089 53.8802 215.109 54.2344C216.141 54.5781 216.995 55.0417 217.672 55.625C218.349 56.1979 218.844 56.8021 219.156 57.4375C219.469 58.0729 219.625 58.6927 219.625 59.2969C219.625 59.849 219.427 60.349 219.031 60.7969C218.646 61.2344 218.161 61.4531 217.578 61.4531C217.047 61.4531 216.641 61.3229 216.359 61.0625C216.089 60.7917 215.792 60.3542 215.469 59.75C215.052 58.8854 214.552 58.2135 213.969 57.7344C213.385 57.2448 212.448 57 211.156 57C209.958 57 208.99 57.2656 208.25 57.7969C207.521 58.3177 207.156 58.9479 207.156 59.6875C207.156 60.1458 207.281 60.5417 207.531 60.875C207.781 61.2083 208.125 61.4948 208.562 61.7344C209 61.974 209.443 62.1615 209.891 62.2969C210.339 62.4323 211.078 62.6302 212.109 62.8906C213.401 63.1927 214.568 63.526 215.609 63.8906C216.661 64.2552 217.552 64.6979 218.281 65.2188C219.021 65.7396 219.594 66.401 220 67.2031C220.417 67.9948 220.625 68.9688 220.625 70.125ZM239.656 57.6719H229.203V63.2969H238.828C239.536 63.2969 240.062 63.4583 240.406 63.7812C240.76 64.0938 240.938 64.5104 240.938 65.0312C240.938 65.5521 240.766 65.9792 240.422 66.3125C240.078 66.6354 239.547 66.7969 238.828 66.7969H229.203V73.3125H240.016C240.745 73.3125 241.292 73.4844 241.656 73.8281C242.031 74.1615 242.219 74.6094 242.219 75.1719C242.219 75.7135 242.031 76.1562 241.656 76.5C241.292 76.8333 240.745 77 240.016 77H227.406C226.396 77 225.667 76.776 225.219 76.3281C224.781 75.8802 224.562 75.1562 224.562 74.1562V56.9375C224.562 56.2708 224.661 55.7292 224.859 55.3125C225.057 54.8854 225.365 54.5781 225.781 54.3906C226.208 54.1927 226.75 54.0938 227.406 54.0938H239.656C240.396 54.0938 240.943 54.2604 241.297 54.5938C241.661 54.9167 241.844 55.3438 241.844 55.875C241.844 56.4167 241.661 56.8542 241.297 57.1875C240.943 57.5104 240.396 57.6719 239.656 57.6719ZM251.953 56.4844L260.875 69.9844V56.3594C260.875 55.474 261.062 54.8125 261.438 54.375C261.823 53.9271 262.339 53.7031 262.984 53.7031C263.651 53.7031 264.177 53.9271 264.562 54.375C264.948 54.8125 265.141 55.474 265.141 56.3594V74.375C265.141 76.3854 264.307 77.3906 262.641 77.3906C262.224 77.3906 261.849 77.3281 261.516 77.2031C261.182 77.0885 260.87 76.901 260.578 76.6406C260.286 76.3802 260.016 76.0781 259.766 75.7344C259.516 75.3802 259.266 75.0208 259.016 74.6562L250.312 61.3125V74.7344C250.312 75.6094 250.109 76.2708 249.703 76.7188C249.297 77.1667 248.776 77.3906 248.141 77.3906C247.484 77.3906 246.958 77.1667 246.562 76.7188C246.167 76.2604 245.969 75.599 245.969 74.7344V57.0625C245.969 56.3125 246.052 55.724 246.219 55.2969C246.417 54.8281 246.745 54.4479 247.203 54.1562C247.661 53.8542 248.156 53.7031 248.688 53.7031C249.104 53.7031 249.458 53.7708 249.75 53.9062C250.052 54.0417 250.312 54.224 250.531 54.4531C250.76 54.6823 250.99 54.9792 251.219 55.3438C251.458 55.7083 251.703 56.0885 251.953 56.4844ZM285.094 57.9219H280.031V74.5625C280.031 75.5208 279.818 76.2344 279.391 76.7031C278.964 77.1615 278.411 77.3906 277.734 77.3906C277.047 77.3906 276.484 77.1562 276.047 76.6875C275.62 76.2188 275.406 75.5104 275.406 74.5625V57.9219H270.344C269.552 57.9219 268.964 57.75 268.578 57.4062C268.193 57.0521 268 56.5885 268 56.0156C268 55.4219 268.198 54.9531 268.594 54.6094C269 54.2656 269.583 54.0938 270.344 54.0938H285.094C285.896 54.0938 286.49 54.2708 286.875 54.625C287.271 54.9792 287.469 55.4427 287.469 56.0156C287.469 56.5885 287.271 57.0521 286.875 57.4062C286.479 57.75 285.885 57.9219 285.094 57.9219Z" fill="#C88787"/>
<path d="M146.391 100.078H142.141V106.562C142.141 107.49 141.922 108.193 141.484 108.672C141.047 109.151 140.495 109.391 139.828 109.391C139.13 109.391 138.568 109.156 138.141 108.688C137.714 108.208 137.5 107.51 137.5 106.594V88.9375C137.5 87.9167 137.734 87.1875 138.203 86.75C138.672 86.3125 139.417 86.0938 140.438 86.0938H146.391C148.151 86.0938 149.505 86.2292 150.453 86.5C151.391 86.7604 152.198 87.1927 152.875 87.7969C153.562 88.401 154.083 89.1406 154.438 90.0156C154.792 90.8906 154.969 91.875 154.969 92.9688C154.969 95.3021 154.25 97.0729 152.812 98.2812C151.375 99.4792 149.234 100.078 146.391 100.078ZM145.266 89.5781H142.141V96.5781H145.266C146.359 96.5781 147.271 96.4635 148 96.2344C148.74 96.0052 149.302 95.6302 149.688 95.1094C150.073 94.5885 150.266 93.9062 150.266 93.0625C150.266 92.0521 149.969 91.2292 149.375 90.5938C148.708 89.9167 147.339 89.5781 145.266 89.5781ZM173.938 89.6719H163.484V95.2969H173.109C173.818 95.2969 174.344 95.4583 174.688 95.7812C175.042 96.0938 175.219 96.5104 175.219 97.0312C175.219 97.5521 175.047 97.9792 174.703 98.3125C174.359 98.6354 173.828 98.7969 173.109 98.7969H163.484V105.312H174.297C175.026 105.312 175.573 105.484 175.938 105.828C176.312 106.161 176.5 106.609 176.5 107.172C176.5 107.714 176.312 108.156 175.938 108.5C175.573 108.833 175.026 109 174.297 109H161.688C160.677 109 159.948 108.776 159.5 108.328C159.062 107.88 158.844 107.156 158.844 106.156V88.9375C158.844 88.2708 158.943 87.7292 159.141 87.3125C159.339 86.8854 159.646 86.5781 160.062 86.3906C160.49 86.1927 161.031 86.0938 161.688 86.0938H173.938C174.677 86.0938 175.224 86.2604 175.578 86.5938C175.943 86.9167 176.125 87.3438 176.125 87.875C176.125 88.4167 175.943 88.8542 175.578 89.1875C175.224 89.5104 174.677 89.6719 173.938 89.6719ZM186.422 99.2031H184.797V106.562C184.797 107.531 184.583 108.245 184.156 108.703C183.729 109.161 183.172 109.391 182.484 109.391C181.745 109.391 181.172 109.151 180.766 108.672C180.359 108.193 180.156 107.49 180.156 106.562V88.9375C180.156 87.9375 180.38 87.2135 180.828 86.7656C181.276 86.3177 182 86.0938 183 86.0938H190.547C191.589 86.0938 192.479 86.1406 193.219 86.2344C193.958 86.3177 194.625 86.4948 195.219 86.7656C195.938 87.0677 196.573 87.5 197.125 88.0625C197.677 88.625 198.094 89.2812 198.375 90.0312C198.667 90.7708 198.812 91.5573 198.812 92.3906C198.812 94.099 198.328 95.4635 197.359 96.4844C196.401 97.5052 194.943 98.2292 192.984 98.6562C193.807 99.0938 194.594 99.7396 195.344 100.594C196.094 101.448 196.76 102.359 197.344 103.328C197.938 104.286 198.396 105.156 198.719 105.938C199.052 106.708 199.219 107.24 199.219 107.531C199.219 107.833 199.12 108.135 198.922 108.438C198.734 108.729 198.474 108.958 198.141 109.125C197.807 109.302 197.422 109.391 196.984 109.391C196.464 109.391 196.026 109.266 195.672 109.016C195.318 108.776 195.01 108.469 194.75 108.094C194.5 107.719 194.156 107.167 193.719 106.438L191.859 103.344C191.193 102.208 190.594 101.344 190.062 100.75C189.542 100.156 189.01 99.75 188.469 99.5312C187.927 99.3125 187.245 99.2031 186.422 99.2031ZM189.078 89.5781H184.797V95.875H188.953C190.068 95.875 191.005 95.7812 191.766 95.5938C192.526 95.3958 193.104 95.0677 193.5 94.6094C193.906 94.1406 194.109 93.5 194.109 92.6875C194.109 92.0521 193.948 91.4948 193.625 91.0156C193.302 90.526 192.854 90.1615 192.281 89.9219C191.74 89.6927 190.672 89.5781 189.078 89.5781ZM216.906 89.6719H207.766V95.5312H215.406C216.115 95.5312 216.641 95.6927 216.984 96.0156C217.339 96.3281 217.516 96.75 217.516 97.2812C217.516 97.8125 217.339 98.2344 216.984 98.5469C216.63 98.8594 216.104 99.0156 215.406 99.0156H207.766V106.562C207.766 107.521 207.547 108.234 207.109 108.703C206.682 109.161 206.13 109.391 205.453 109.391C204.766 109.391 204.203 109.156 203.766 108.688C203.339 108.219 203.125 107.51 203.125 106.562V88.9375C203.125 88.2708 203.224 87.7292 203.422 87.3125C203.62 86.8854 203.927 86.5781 204.344 86.3906C204.771 86.1927 205.312 86.0938 205.969 86.0938H216.906C217.646 86.0938 218.193 86.2604 218.547 86.5938C218.911 86.9167 219.094 87.3438 219.094 87.875C219.094 88.4167 218.911 88.8542 218.547 89.1875C218.193 89.5104 217.646 89.6719 216.906 89.6719ZM237.656 89.6719H227.203V95.2969H236.828C237.536 95.2969 238.062 95.4583 238.406 95.7812C238.76 96.0938 238.938 96.5104 238.938 97.0312C238.938 97.5521 238.766 97.9792 238.422 98.3125C238.078 98.6354 237.547 98.7969 236.828 98.7969H227.203V105.312H238.016C238.745 105.312 239.292 105.484 239.656 105.828C240.031 106.161 240.219 106.609 240.219 107.172C240.219 107.714 240.031 108.156 239.656 108.5C239.292 108.833 238.745 109 238.016 109H225.406C224.396 109 223.667 108.776 223.219 108.328C222.781 107.88 222.562 107.156 222.562 106.156V88.9375C222.562 88.2708 222.661 87.7292 222.859 87.3125C223.057 86.8854 223.365 86.5781 223.781 86.3906C224.208 86.1927 224.75 86.0938 225.406 86.0938H237.656C238.396 86.0938 238.943 86.2604 239.297 86.5938C239.661 86.9167 239.844 87.3438 239.844 87.875C239.844 88.4167 239.661 88.8542 239.297 89.1875C238.943 89.5104 238.396 89.6719 237.656 89.6719ZM263.422 101.766C263.422 102.495 263.24 103.286 262.875 104.141C262.521 104.984 261.958 105.818 261.188 106.641C260.417 107.453 259.432 108.115 258.234 108.625C257.036 109.135 255.641 109.391 254.047 109.391C252.839 109.391 251.74 109.276 250.75 109.047C249.76 108.818 248.859 108.464 248.047 107.984C247.245 107.495 246.505 106.854 245.828 106.062C245.224 105.344 244.708 104.542 244.281 103.656C243.854 102.76 243.531 101.807 243.312 100.797C243.104 99.7865 243 98.7135 243 97.5781C243 95.7344 243.266 94.0833 243.797 92.625C244.339 91.1667 245.109 89.9219 246.109 88.8906C247.109 87.849 248.281 87.0573 249.625 86.5156C250.969 85.974 252.401 85.7031 253.922 85.7031C255.776 85.7031 257.427 86.0729 258.875 86.8125C260.323 87.5521 261.432 88.4688 262.203 89.5625C262.974 90.6458 263.359 91.6719 263.359 92.6406C263.359 93.1719 263.172 93.6406 262.797 94.0469C262.422 94.4531 261.969 94.6562 261.438 94.6562C260.844 94.6562 260.396 94.5156 260.094 94.2344C259.802 93.9531 259.474 93.4688 259.109 92.7812C258.505 91.6458 257.792 90.7969 256.969 90.2344C256.156 89.6719 255.151 89.3906 253.953 89.3906C252.047 89.3906 250.526 90.1146 249.391 91.5625C248.266 93.0104 247.703 95.0677 247.703 97.7344C247.703 99.5156 247.953 101 248.453 102.188C248.953 103.365 249.661 104.245 250.578 104.828C251.495 105.411 252.568 105.703 253.797 105.703C255.13 105.703 256.255 105.375 257.172 104.719C258.099 104.052 258.797 103.078 259.266 101.797C259.464 101.193 259.708 100.703 260 100.328C260.292 99.9427 260.76 99.75 261.406 99.75C261.958 99.75 262.432 99.9427 262.828 100.328C263.224 100.714 263.422 101.193 263.422 101.766ZM282.469 89.9219H277.406V106.562C277.406 107.521 277.193 108.234 276.766 108.703C276.339 109.161 275.786 109.391 275.109 109.391C274.422 109.391 273.859 109.156 273.422 108.688C272.995 108.219 272.781 107.51 272.781 106.562V89.9219H267.719C266.927 89.9219 266.339 89.75 265.953 89.4062C265.568 89.0521 265.375 88.5885 265.375 88.0156C265.375 87.4219 265.573 86.9531 265.969 86.6094C266.375 86.2656 266.958 86.0938 267.719 86.0938H282.469C283.271 86.0938 283.865 86.2708 284.25 86.625C284.646 86.9792 284.844 87.4427 284.844 88.0156C284.844 88.5885 284.646 89.0521 284.25 89.4062C283.854 89.75 283.26 89.9219 282.469 89.9219Z" fill="#C88787"/>
</svg>
